<svg width="100" height="100" viewBox="0 0 100 100" xmlns="http://www.w3.org/2000/svg">
  <style>
    .feather {
      fill: #92400e;
      stroke: #78350f;
      stroke-width: 1;
    }
    .bow {
      fill: none;
      stroke: #92400e;
      stroke-width: 3;
      stroke-linecap: round;
    }
    .string {
      fill: none;
      stroke: #92400e;
      stroke-width: 1;
      stroke-dasharray: 2, 1;
    }
  </style>
  
  <!-- Bow -->
  <path class="bow" d="M20,75 Q50,60 80,75" />
  
  <!-- Bow string -->
  <path class="string" d="M20,75 L80,75" />
  
  <!-- Arrow -->
  <line x1="30" y1="75" x2="70" y2="75" stroke="#78350f" stroke-width="2" />
  
  <!-- Arrow feathers -->
  <path class="feather" d="M30,75 L25,70 L28,75 L25,80 Z" />
  
  <!-- Arrow head -->
  <path fill="#78350f" d="M70,75 L75,70 L73,75 L75,80 Z" />
  
  <!-- Condor silhouette -->
  <path fill="#92400e" d="M50,20 Q60,15 65,25 Q70,20 75,25 Q80,30 75,40 Q65,55 50,45 Q35,55 25,40 Q20,30 25,25 Q30,20 35,25 Q40,15 50,20 Z" />
  
  <!-- Condor details -->
  <circle cx="45" cy="25" r="1.5" fill="#44403c" />
  <path fill="none" stroke="#44403c" stroke-width="1" d="M40,35 Q50,40 60,35" />
</svg>
















